# xmcd
#
# Track frame offsets:
#	150
#	15885
#	38660
#	59580
#	80297
#	91425
#	104427
#	122515
#	135417
#	142185
#	157795
#	172912
#	192350
#	214140
#	232415
# Disc length: 3293 seconds
# Revision: 1
# Processed by: cddbd v1.5.1PL0 Copyright (c) Steve Scherf et al.
#
# Submitted via: libkcddb 0.10
#
DISCID=c40cdb0f
DTITLE=Various Artist - America's Country
DYEAR=2002
DGENRE=Country
TTITLE0=Song Of The Patriot
TTITLE1=Let Freedom Ring
TTITLE2=Bridge Over Troubled Water
TTITLE3=Somebody's Prayin'
TTITLE4=America The Beautiful
TTITLE5=The Eagle
TTITLE6=Tattoos And Scars
TTITLE7=The Fightin' Side Of Me
TTITLE8=The Star Spangled Banner
TTITLE9=There's Hero
TTITLE10=Home
TTITLE11=Some Gave All
TTITLE12=City Of New Orleans
TTITLE13=Where I'm Bound
TTITLE14=God Bless The U.S.A.
EXTD=
EXTT0=
EXTT1=
EXTT2=
EXTT3=
EXTT4=
EXTT5=
EXTT6=
EXTT7=
EXTT8=
EXTT9=
EXTT10=
EXTT11=
EXTT12=
EXTT13=
EXTT14=
PLAYORDER=
